# File created by Blade
# Date/Time:  Thu Jan 22 16:00:44 2015
# Frame Rate: 120.000 fps
#------------------------------------------------------
:FULLY-SPECIFIED
:DEGREES
1769
root 2.081092 37.222091 7.216032 1.263574 -5.970885 1.078235
RightUpLeg 8.409270 1.023497 -3.368590
RightLeg -6.173619 -0.000000 0.000000
RightFoot -8.562096 -6.508914 18.481004
RightToeBase 13.384944 -0.000000 -0.000000
LeftUpLeg 7.048102 5.950166 4.527312
LeftLeg -3.145645 -0.000000 0.000000
LeftFoot -6.557255 8.853662 -19.115722
LeftToeBase 6.575068 -0.000000 -0.000000
Spine -7.359096 -5.715480 0.531409
RightShoulder 10.563584 -24.113964 -15.219697
RightArm 131.180436 -49.724440 -39.932176
RightForeArm -30.982436 -0.000000 114.947040
RightHand 34.655865 0.000000 -25.786195
RightHandThumb1 -24.326973 -0.000000 -32.862282
LeftShoulder -18.592968 1.673530 39.477306
LeftArm 147.462479 -51.250606 -112.482001
LeftForeArm -36.465677 -0.000000 124.496302
LeftHand -10.327476 -0.000000 5.964425
LeftHandThumb1 -26.253704 0.000000 33.147579
Head 43.205085 -6.527166 7.232352
1770
root 2.068270 37.219957 7.236223 1.256000 -5.918663 1.090367
RightUpLeg 8.472772 1.036762 -3.352544
RightLeg -6.196881 -0.000000 0.000000
RightFoot -8.614267 -6.572081 18.474699
RightToeBase 13.414953 -0.000000 -0.000000
LeftUpLeg 7.090543 5.917751 4.537568
LeftLeg -3.170270 -0.000000 0.000000
LeftFoot -6.552535 8.840347 -19.142460
LeftToeBase 6.555923 -0.000000 -0.000000
Spine -7.496918 -5.807763 0.485790
RightShoulder 10.574953 -24.080344 -15.380289
RightArm 131.262040 -49.654679 -39.896509
RightForeArm -30.925784 -0.000000 114.927251
RightHand 34.683814 -0.000000 -25.961828
RightHandThumb1 -24.326973 -0.000000 -32.862282
LeftShoulder -18.721840 1.876417 39.313492
LeftArm 148.502543 -50.568215 -112.319004
LeftForeArm -38.027027 0.000000 127.029480
LeftHand -9.795591 -0.000000 5.473449
LeftHandThumb1 -26.253704 0.000000 33.147579
Head 43.388449 -6.567213 7.095356
1771
root 2.054812 37.218906 7.253938 1.238020 -5.887289 1.108537
RightUpLeg 8.527106 1.088410 -3.342205
RightLeg -6.195960 -0.000000 0.000000
RightFoot -8.682676 -6.630331 18.478017
RightToeBase 13.443854 -0.000000 -0.000000
LeftUpLeg 7.136887 5.904725 4.543146
LeftLeg -3.183113 -0.000000 0.000000
LeftFoot -6.539427 8.822868 -19.160835
LeftToeBase 6.606817 -0.000000 -0.000000
Spine -7.614843 -5.767589 0.418769
RightShoulder 10.501666 -24.058353 -15.455923
RightArm 131.359372 -49.604485 -39.906328
RightForeArm -31.006830 0.000000 114.910271
RightHand 34.687714 -0.000000 -26.175385
RightHandThumb1 -24.326973 -0.000000 -32.862282
LeftShoulder -18.792856 1.983498 39.161637
LeftArm 149.355887 -49.924505 -111.957897
LeftForeArm -39.360868 -0.000000 129.632897
LeftHand -9.219776 -0.000000 5.043920
LeftHandThumb1 -26.253704 0.000000 33.147579
Head 43.537083 -6.726178 6.840106
1772
root 2.040039 37.217822 7.271992 1.203460 -5.851115 1.128127
RightUpLeg 8.599570 1.159029 -3.325543
RightLeg -6.194221 -0.000000 0.000000
RightFoot -8.752876 -6.728760 18.473044
RightToeBase 13.457611 -0.000000 -0.000000
LeftUpLeg 7.198454 5.883718 4.550509
LeftLeg -3.194468 -0.000000 0.000000
LeftFoot -6.527821 8.809090 -19.198974
LeftToeBase 6.576166 -0.000000 -0.000000
Spine -7.735833 -5.658966 0.354899
RightShoulder 10.404482 -24.072144 -15.512105
RightArm 131.391751 -49.586413 -39.846606
RightForeArm -30.995346 -0.000000 114.885944
RightHand 34.702876 -0.000000 -26.361515
RightHandThumb1 -24.326973 -0.000000 -32.862282
LeftShoulder -18.762168 2.017372 38.978019
LeftArm 150.136563 -49.360892 -111.487425
LeftForeArm -40.687589 -0.000000 132.212729
LeftHand -8.457072 -0.000000 4.145218
LeftHandThumb1 -26.253704 0.000000 33.147579
Head 43.692008 -6.879318 6.586369
1773
root 2.027108 37.215864 7.292112 1.163092 -5.804511 1.155302
RightUpLeg 8.680688 1.178268 -3.322862
RightLeg -6.195048 -0.000000 0.000000
RightFoot -8.835075 -6.788029 18.479839
RightToeBase 13.460626 -0.000000 -0.000000
LeftUpLeg 7.263923 5.859405 4.547367
LeftLeg -3.201796 -0.000000 0.000000
LeftFoot -6.521534 8.795952 -19.214079
LeftToeBase 6.576277 -0.000000 -0.000000
Spine -7.841563 -5.791110 0.276894
RightShoulder 10.500387 -24.079580 -15.580290
RightArm 131.395957 -49.497618 -39.863852
RightForeArm -31.053244 -0.000000 114.928978
RightHand 34.692554 -0.000000 -26.534909
RightHandThumb1 -24.326973 -0.000000 -32.862282
LeftShoulder -19.011017 2.437681 38.801032
LeftArm 151.071308 -48.597311 -111.186099
LeftForeArm -41.917484 0.000000 134.802173
LeftHand -7.776306 -0.000000 2.736722
LeftHandThumb1 -26.253704 0.000000 33.147579
Head 43.802903 -6.827080 6.450897
1774
root 2.013438 37.214731 7.308856 1.146690 -5.775393 1.150047
RightUpLeg 8.727446 1.218770 -3.292749
RightLeg -6.181890 -0.000000 0.000000
RightFoot -8.877015 -6.833642 18.471083
RightToeBase 13.430482 -0.000000 -0.000000
LeftUpLeg 7.302346 5.850673 4.576973
LeftLeg -3.199400 -0.000000 0.000000
LeftFoot -6.526627 8.770207 -19.232810
LeftToeBase 6.540809 -0.000000 -0.000000
Spine -7.999450 -5.761649 0.280561
RightShoulder 10.514103 -24.159262 -15.608471
RightArm 130.955462 -49.587095 -39.585898
RightForeArm -31.224521 -0.000000 115.071729
RightHand 34.839918 -0.000000 -27.001636
RightHandThumb1 -24.326973 -0.000000 -32.862282
LeftShoulder -19.043262 2.496331 38.652182
LeftArm 151.545532 -48.129863 -110.520295
LeftForeArm -42.574008 -0.000000 137.389028
LeftHand -6.983077 -0.000000 1.652534
LeftHandThumb1 -26.253704 0.000000 33.147579
Head 43.893930 -6.780789 6.273205
1775
root 1.998324 37.213613 7.326048 1.122366 -5.762857 1.150993
RightUpLeg 8.776853 1.238317 -3.266272
RightLeg -6.168002 -0.000000 0.000000
RightFoot -8.922538 -6.859707 18.454894
RightToeBase 13.440245 -0.000000 -0.000000
LeftUpLeg 7.350428 5.850307 4.603427
LeftLeg -3.192154 -0.000000 0.000000
LeftFoot -6.538012 8.752311 -19.251258
LeftToeBase 6.554135 -0.000000 -0.000000
Spine -8.180119 -5.651691 0.264001
RightShoulder 10.548408 -24.259837 -15.649813
RightArm 130.781639 -49.620257 -39.438299
RightForeArm -31.325826 -0.000000 115.098314
RightHand 34.863394 -0.000000 -27.272901
RightHandThumb1 -24.326973 -0.000000 -32.862282
LeftShoulder -19.040593 2.640273 38.413964
LeftArm 152.025040 -47.519303 -109.811815
LeftForeArm -43.252212 -0.000000 139.765595
LeftHand -6.053626 -0.000000 0.092998
LeftHandThumb1 -26.253704 0.000000 33.147579
Head 43.990544 -6.732591 6.167749
1776
root 1.985105 37.213395 7.344073 1.087750 -5.751583 1.132623
RightUpLeg 8.845310 1.267627 -3.224708
RightLeg -6.165489 -0.000000 0.000000
RightFoot -8.948814 -6.884781 18.476741
RightToeBase 13.497805 -0.000000 -0.000000
LeftUpLeg 7.412177 5.827525 4.644513
LeftLeg -3.184391 -0.000000 0.000000
LeftFoot -6.557176 8.753212 -19.269112
LeftToeBase 6.548176 -0.000000 -0.000000
Spine -8.338450 -5.494290 0.332856
RightShoulder 10.540016 -24.407206 -15.751659
RightArm 130.649253 -49.531832 -39.264938
RightForeArm -31.320870 -0.000000 115.064031
RightHand 34.851023 -0.000000 -27.486710
RightHandThumb1 -24.326973 -0.000000 -32.862282
LeftShoulder -18.937286 2.446792 38.223999
LeftArm 152.102210 -47.084821 -108.967500
LeftForeArm -43.926596 -0.000000 142.029825
LeftHand -4.961062 -0.000000 -1.823613
LeftHandThumb1 -26.253704 0.000000 33.147579
Head 44.021923 -6.587773 6.008510
1777
root 1.971995 37.212583 7.361269 1.078424 -5.720733 1.103486
RightUpLeg 8.891519 1.253246 -3.171399
RightLeg -6.164901 -0.000000 0.000000
RightFoot -8.963076 -6.907919 18.466806
RightToeBase 13.472198 -0.000000 -0.000000
LeftUpLeg 7.441567 5.798325 4.694090
LeftLeg -3.170679 -0.000000 0.000000
LeftFoot -6.586324 8.750106 -19.273437
LeftToeBase 6.497271 -0.000000 -0.000000
Spine -8.549833 -5.266008 0.450029
RightShoulder 10.503208 -24.504001 -15.888955
RightArm 130.572427 -49.516608 -39.069775
RightForeArm -31.253637 -0.000000 114.997798
RightHand 34.850302 -0.000000 -27.696491
RightHandThumb1 -24.326973 -0.000000 -32.862282
LeftShoulder -18.791041 2.029263 38.056234
LeftArm 151.710868 -46.511589 -107.921695
LeftForeArm -44.513389 -0.000000 144.107303
LeftHand -4.177423 -0.000000 -3.709578
LeftHandThumb1 -26.253704 0.000000 33.147579
Head 44.059110 -6.463544 5.768584
1778
root 1.955784 37.206699 7.381521 1.060298 -5.689379 1.122182
RightUpLeg 8.961922 1.267156 -3.160840
RightLeg -6.186369 -0.000000 0.000000
RightFoot -9.071952 -6.921797 18.469290
RightToeBase 13.581277 -0.000000 -0.000000
LeftUpLeg 7.482531 5.780060 4.706334
LeftLeg -3.160033 -0.000000 0.000000
LeftFoot -6.621541 8.708813 -19.300443
LeftToeBase 6.515332 -0.000000 -0.000000
Spine -8.712923 -5.134538 0.371642
RightShoulder 10.445935 -24.456419 -15.865865
RightArm 130.696222 -49.560390 -39.147555
RightForeArm -31.347487 -0.000000 115.002046
RightHand 34.832662 -0.000000 -27.942793
RightHandThumb1 -24.326973 -0.000000 -32.862282
LeftShoulder -18.758039 2.269161 37.745662
LeftArm 152.250277 -45.564633 -107.480358
LeftForeArm -44.600599 -0.000000 145.735370
LeftHand -3.401482 -0.000000 -6.045205
LeftHandThumb1 -26.253704 0.000000 33.147579
Head 44.072866 -6.670700 5.466285
1779
root 1.938520 37.196618 7.402480 1.097624 -5.667568 1.159449
RightUpLeg 8.979026 1.219404 -3.173712
RightLeg -6.211065 -0.000000 0.000000
RightFoot -9.131271 -6.910231 18.317452
RightToeBase 13.496707 -0.000000 -0.000000
LeftUpLeg 7.477269 5.781994 4.696342
LeftLeg -3.163258 -0.000000 0.000000
LeftFoot -6.653753 8.666150 -19.293115
LeftToeBase 6.487416 -0.000000 -0.000000
Spine -8.866892 -5.538347 0.201049
RightShoulder 10.706989 -24.232372 -15.823949
RightArm 130.934089 -49.515078 -39.516733
RightForeArm -31.484117 -0.000000 115.140418
RightHand 34.805114 -0.000000 -28.160852
RightHandThumb1 -24.326973 -0.000000 -32.862282
LeftShoulder -19.265516 3.718214 37.219202
LeftArm 154.093058 -44.110394 -107.923666
LeftForeArm -44.803649 -0.000000 146.818894
LeftHand -2.808821 -0.000000 -8.255162
LeftHandThumb1 -26.253704 0.000000 33.147579
Head 43.874075 -6.549327 5.607288
1780
root 1.924066 37.196984 7.417207 1.091113 -5.640743 1.155861
RightUpLeg 9.019861 1.220234 -3.143095
RightLeg -6.215008 -0.000000 0.000000
RightFoot -9.154360 -6.940560 18.322611
RightToeBase 13.493376 -0.000000 -0.000000
LeftUpLeg 7.488043 5.765804 4.723651
LeftLeg -3.128397 -0.000000 0.000000
LeftFoot -6.669326 8.637462 -19.340919
LeftToeBase 6.612086 -0.000000 -0.000000
Spine -9.069917 -5.590948 0.190815
RightShoulder 10.869059 -24.234923 -15.905768
RightArm 130.866229 -49.473524 -39.477430
RightForeArm -31.496741 -0.000000 115.123921
RightHand 34.806800 -0.000000 -28.450593
RightHandThumb1 -24.326973 -0.000000 -32.862282
LeftShoulder -19.238393 3.819685 36.945209
LeftArm 154.041862 -43.092921 -107.256729
LeftForeArm -44.831574 -0.000000 147.657287
LeftHand -2.352196 -0.000000 -9.747922
LeftHandThumb1 -26.253704 0.000000 33.147579
Head 43.896709 -6.442065 5.571603
1781
root 1.906877 37.195984 7.432861 1.064883 -5.602159 1.161715
RightUpLeg 9.086624 1.226810 -3.110998
RightLeg -6.224307 -0.000000 0.000000
RightFoot -9.198497 -7.007403 18.279171
RightToeBase 13.482722 -0.000000 -0.000000
LeftUpLeg 7.514813 5.757693 4.749015
LeftLeg -3.096190 -0.000000 0.000000
LeftFoot -6.675896 8.622267 -19.348760
LeftToeBase 6.526550 -0.000000 -0.000000
Spine -9.275910 -5.441206 0.123089
RightShoulder 10.849545 -24.389866 -15.952852
RightArm 130.644369 -49.375335 -39.301429
RightForeArm -31.450537 -0.000000 115.131306
RightHand 34.820839 -0.000000 -28.734608
RightHandThumb1 -24.326973 -0.000000 -32.862282
LeftShoulder -18.958410 3.670033 36.746020
LeftArm 153.667049 -41.915711 -106.592473
LeftForeArm -43.985245 0.000000 148.105938
LeftHand -1.741244 0.000000 -10.635397
LeftHandThumb1 -26.253704 0.000000 33.147579
Head 43.925647 -6.586547 5.578891
